<?xml version="1.0"?>
<svg width="375" height="324" xmlns="http://www.w3.org/2000/svg" xmlns:svg="http://www.w3.org/2000/svg" xml:space="preserve">
 <g class="layer">
  <title>Layer 1</title>
  <path d="m-27,108l0,210l-375,0l0,-324l375,0l0,114m-284.38,-74.38c-0.61,0.46 -1.22,0.91 -2.17,1.94c0.29,0.83 0.57,1.66 0.93,3.05c0.14,0.13 0.28,0.26 0.48,1.14c2.73,6.75 5.47,13.5 8.19,20.83c0.29,0.48 0.59,0.96 0.93,2.19c1.7,4.29 3.61,8.51 5.04,12.9c1.31,4.05 4.53,7.73 2.88,12.68c-1.66,-1.14 -2.95,-2.46 -3.61,-4.04c-2.26,-5.39 -4.29,-10.86 -6.44,-17.04c-4.67,-10.32 -7.54,-21.47 -14.36,-30.85c1.76,11.62 6.87,22.02 11.38,33.4c2.21,5.78 4.46,11.55 6.6,17.36c0.36,0.97 0.27,2.1 0.39,3.16c-1.27,-0.11 -2.55,-0.23 -3.62,-0.98c-0.35,-0.48 -0.69,-0.95 -1.15,-2.2c-0.78,-2.38 -1.56,-4.77 -2.4,-7.87c-4.79,-12 -9.54,-24.02 -14.41,-35.99c-0.68,-1.67 -1.97,-3.1 -2.98,-4.64l-2.36,1.23c5.4,13.37 10.8,26.74 16.24,40.83c1.04,2.42 2.07,4.84 3.11,7.81c0.25,0.49 0.49,0.98 0.67,2.25l-0.78,2.94c-0.76,-0.5 -1.78,-0.84 -2.22,-1.55c-0.78,-1.25 -1.23,-2.72 -1.78,-4.11c-5.61,-14.05 -11.17,-28.12 -16.87,-42.13c-0.66,-1.63 -2.05,-2.96 -3.11,-4.43l-1.63,0.96c0.45,1.83 0.72,3.74 1.38,5.49c6.23,16.67 12.71,33.24 18.71,49.99c2.24,6.27 5.69,10.27 12.48,11.23c3.75,0.53 6.19,2.8 7.31,6.61c1.44,4.95 3.39,9.75 4.75,14.72c1.37,5.03 3.58,9.08 10.25,10.88c-0.24,-2.61 0.07,-4.98 -0.74,-6.88c-2.66,-6.27 -5.48,-12.5 -8.69,-18.51c-2.56,-4.8 -2.68,-8.99 0.77,-13.39c2.72,-3.47 3.55,-7.56 1.81,-11.77c-2.47,-5.99 -5.15,-11.89 -7.73,-18.39c-0.29,-0.49 -0.57,-0.96 -0.91,-2.17c-4.33,-10.09 -8.66,-20.18 -12.98,-30.91c-0.57,-1.13 -1.14,-2.27 -1.79,-4.02c-0.4,-0.43 -0.8,-0.86 -1.57,-1.72m47.46,223.65c-1.7,-2.59 -3.71,-4.44 -7.17,-3.68c-1,-1.63 -1.67,-3.71 -3.1,-4.76c-1.62,-1.2 -4.9,-2.64 -5.77,-1.93c-3.13,2.58 -5.88,5.82 -8.03,9.27c-0.58,0.95 1.53,3.5 2.27,5.37c0.22,0.53 -0.27,1.38 -0.01,1.85c0.76,1.36 1.73,2.61 2.62,3.91c4.47,-4.82 8.3,-8.96 12.74,-12.36c-1.47,3.23 -2.67,6.63 -4.46,9.67c-2.3,3.89 0.28,5.41 2.89,6.97c2.71,1.63 5.27,2.8 7.33,-1.24c1.8,-3.56 4.22,-6.81 6.79,-10.87a208.07,208.07 0 0 0 -5.52,-1.42c-0.23,-0.02 -0.46,-0.04 -0.58,-0.78m92.73,4.05c1.71,2.64 3.54,5.22 5.1,7.95c1.5,2.63 3.34,2.73 5.81,1.51c5.6,-2.77 6.19,-4.65 2.86,-9.82c-0.72,-1.12 -1.33,-2.32 -2.18,-3.33c-1.55,-1.85 -2.11,-5.58 -5.78,-3.94c-3.23,1.44 -7.05,2.71 -7.17,7.79c-1.11,-0.54 -2.48,-1.79 -3.29,-1.5c-3.21,1.14 -6.24,2.77 -8.71,3.92l6.98,15.41l5.88,-2.64l-3.61,-4l3.08,-1.33l-2.41,-4.9c1.14,-2.14 1.96,-3.69 3.44,-5.12m-30.85,7.97c-2.7,0.13 -5.4,0.24 -8.1,0.39c-3.94,0.23 -7.89,0.5 -12.8,0.77l-6.29,-1.77l-2.46,16.96l5.46,0.43c0.44,-4.41 0.63,-8.3 1.34,-12.08c0.22,-1.15 1.89,-2.02 2.75,-2.17l0.71,4.32l2.89,-4l0,14.54l5.79,-0.36l-0.87,-13.84l0.92,-0.14l1.95,3.41l2.78,-5.24l6.59,14.02l-1.22,1.2c1.86,-0.38 3.72,-0.75 6.15,-1.18c-0.19,-0.73 -0.38,-1.45 -1.1,-2.81c0.15,-2.91 0.3,-5.82 0.79,-9.37l1.77,-4.58l-0.95,-1.13c-1.99,1.1 -3.97,2.19 -6.1,2.63m-96.75,5.8c-0.49,0.53 -0.98,1.06 -2.08,1.25c-6.34,-6.83 -13.05,-13.34 -18.85,-20.59c-3.1,-3.89 -5.54,-4.95 -9.54,-2.08c18.39,30.93 64.43,66.06 125.83,60.3c54.29,-5.1 93.43,-42.81 106.38,-72.8l-4.62,-2.56c-5.82,7.98 -11.49,15.72 -18.1,23.43c-0.96,-0.09 -1.91,-0.18 -2.53,-0.89c5.28,-7.66 10.68,-15.24 15.71,-23.06c0.85,-1.32 0.12,-3.66 0.12,-5.52l-1.37,-0.06c-0.71,1.29 -1.44,2.56 -2.13,3.86c-26.18,48.75 -81.91,73.73 -135.59,60.47c-27.64,-6.83 -50.15,-21.77 -67.55,-44.36c-2.64,-3.42 -2.66,-3.4 -6.77,-1.07c7.48,7.88 14.79,15.57 21.09,23.68m246.81,-107.06s0.04,0.07 -0.46,-0.68c1.21,-7.39 2.69,-14.76 3.44,-22.19c0.19,-1.86 -1.61,-5.18 -3.16,-5.66c-2.3,-0.71 -5.3,0.21 -7.78,1.06c-1.13,0.39 -1.74,2.29 -2.56,3.47c-12.74,-4.55 -18.03,-2.87 -24.53,9.26c-4.22,7.87 -7.25,16.37 -10.83,24.58c-2.34,5.37 -4.95,10.55 -11.34,14.46c0.22,-3.85 0.04,-6.51 0.59,-9a358.1,358.1 0 0 1 5.01,-19.84c1,-3.54 2.17,-6.92 -1.99,-9.11c-4.01,-2.12 -8.32,-3.47 -11.9,0.52c-4.11,4.56 -7.8,9.48 -11.7,14.23c-0.59,0.72 -1.36,1.3 -2.05,1.95c1.1,-4.29 3,-8 4.07,-11.93c0.41,-1.52 -0.53,-4.25 -1.79,-5.21c-4.71,-3.63 -8.73,-2.3 -10.8,3.2c-1.23,3.26 -1.95,6.74 -3.38,9.91a667.33,667.33 0 0 1 -11.74,24.7c-0.94,1.86 -2.85,3.24 -4.31,4.85l-1.26,-0.6c0,-2.38 -0.49,-4.89 0.09,-7.13c1.83,-7.07 4.15,-14.01 6.07,-21.05c0.43,-1.57 0.74,-3.89 -0.08,-4.96c-3.36,-4.42 -10.55,-3.19 -12.28,2.06c-1.9,5.76 -3.39,11.66 -5.05,17.49a60.95,60.95 0 0 1 -1.91,-16.93c0.16,-5.44 -3.75,-6.1 -7.33,-7.13c-3.51,-1.02 -6.58,-0.46 -8.19,3.52c-0.63,1.57 -1.79,2.92 -2.72,4.37c0.34,-3.82 1.46,-7.06 2.64,-10.27c1.25,-3.43 0.39,-5.71 -3.21,-7.05c-3.72,-1.38 -6.09,-0.42 -7.4,3.34c-2.08,5.97 -4.58,11.81 -6.24,17.89c-3.41,12.54 -10.21,23.06 -18.5,32.75c-1.83,2.13 -3.95,4.11 -6.25,5.71c-3.25,2.27 -5.6,1.31 -5.82,-2.64c-0.23,-4.23 0.47,-8.5 0.79,-13.24c12.5,2.64 17.25,-5.06 20.87,-14.04c1.3,-3.22 2.28,-6.64 2.79,-10.06c1.06,-7.22 -3.39,-12.65 -10.6,-13.7c-5.19,-0.76 -9.06,1.3 -12.21,5.19c-8.15,10.09 -12.85,21.71 -15.1,34.36c-1.3,7.28 -1.65,14.52 4.74,20.7c-1.89,0.27 -3.01,0.48 -4.14,0.59c-6.57,0.64 -7.16,0.53 -7.97,-6.07c-0.61,-5.07 -0.63,-10.35 0.06,-15.4c2.26,-16.68 8.58,-32.09 15.85,-47.11c0.72,-1.51 3.22,-3.12 4.83,-3.05c5.5,0.24 10.98,1.21 17.07,1.97c-0.4,-2.07 -0.03,-5.67 -1.57,-6.91c-3.38,-2.72 -7.72,-4.26 -11.19,-6.03c0.3,-2.21 1.66,-5.23 0.82,-7.4c-2.22,-5.73 -9.6,-6.19 -13.11,-1.2c-1.15,1.63 -2.42,3.25 -3.17,5.07c-1.75,4.29 -4.65,6.32 -9.37,6.78c-3.4,0.33 -6.76,1.75 -9.98,3.07c-8.12,3.32 -8.45,7.56 -1.59,12.77l12.15,-5.64c-5,18.3 -11.84,34.42 -20.56,49.75c-1.23,2.16 -2.7,4.21 -4.28,6.13c-0.97,1.19 -2.35,2.04 -4.51,3.84c-0.15,-3 -0.7,-4.86 -0.25,-6.44c2.62,-9.24 5.25,-18.5 8.37,-27.59c1.26,-3.68 0.97,-6.12 -2.5,-7.87c-3.48,-1.75 -6.9,-2.88 -9.45,1.55c-1.22,2.12 -2.63,4.13 -4.05,6.36c-1.89,-0.9 -3.37,-1.6 -4.85,-2.31c-7.12,-3.43 -10.83,-2.82 -15.51,3.65c-3.29,4.55 -5.63,9.78 -8.64,14.55c-6.45,10.23 -12.39,20.88 -19.85,30.32c-4.38,5.53 -10.86,9.82 -17.16,13.29c-7.42,4.08 -13.98,0.84 -16.35,-7.27a44,44 0 0 1 -1.74,-12.78c0.28,-20.29 5.72,-39.47 13.85,-57.87c2.51,-5.69 6.01,-11.15 10.06,-15.87c2.13,-2.48 6.4,-3.13 9.7,-4.61c1.15,3.29 3.32,6.6 3.25,9.86c-0.31,15.32 -4.53,29.84 -10.27,43.96c-0.58,1.43 -1.24,4.25 -0.88,4.43c3.42,1.68 6.96,3.3 10.65,4.2c3.27,0.79 5.3,-1.27 6.04,-4.5c1.73,-7.62 3.92,-15.16 5.1,-22.86c1.81,-11.88 2.7,-23.89 -0.71,-35.69c-3.25,-11.23 -11.01,-15.04 -21.95,-10.82c-8.37,3.23 -14.6,9.17 -19.73,16.33c-10.28,14.36 -15.9,30.65 -19.19,47.8c-2.89,15.01 -4.16,30.1 1.13,44.89c3.97,11.1 11.6,15.53 23.3,14.11c0.85,-0.11 1.73,-0.02 2.75,-0.02c-0.92,1.98 -2.27,3.6 -2.32,5.26c-0.08,2.79 -0.12,6.18 1.36,8.19c0.87,1.17 5.03,0.9 7.17,0c34.42,-14.62 70.57,-22.7 107.3,-28.52c46.98,-7.46 94.32,-10.71 141.85,-11.41c2.89,-0.05 5.78,-0.01 8.78,-0.01c-2.16,10.39 4.61,18.35 13.36,15.72c3.96,-1.19 8.28,-4.25 10.42,-7.7c3.62,-5.85 7.38,-9.24 14.59,-7.63c1.08,0.24 2.64,-1.65 3.98,-2.56c-1.15,-1.22 -2.1,-2.9 -3.51,-3.54c-1.74,-0.78 -3.88,-0.69 -6.16,-1.02c1.88,-4.51 4.23,-8.62 5.31,-13.05c3.3,-13.6 11.69,-23.24 22.74,-31.05c1.08,-0.77 2.2,-1.6 2.98,-2.64c2.07,-2.73 3.3,-5.66 0.85,-9.34c-5.42,4.15 -10.63,8.14 -15.79,12.19m-127.94,-149.28c-7.68,1.44 -15.4,2.71 -23.04,4.36c-16.85,3.64 -29.86,12.27 -33.71,30c-3.73,17.21 1.95,32.01 16.35,42.08c11.55,8.07 23.88,11.61 37.99,3.28c14.69,-8.66 31.63,-11.07 48.52,-12.2c10.35,-0.68 20.7,-0.41 30.48,3.74c4.45,1.88 8.49,4.63 9.19,9.72c0.83,5.97 0.81,12.06 1.19,18.66c-19.34,-7.39 -38.36,-8.69 -57.81,-5.1c24.47,1.79 46.96,8.99 67.27,24.69l-1.55,-43.04c1.53,0.33 2.5,0.54 3.47,0.74c25.66,5.29 48.7,-11.97 50.1,-37.54c1.12,-20.4 -14.56,-36.35 -33.85,-34.06c-4.51,0.53 -8.86,2.44 -13.41,3.75c-1.73,-10.57 -7.26,-18.66 -16.59,-24.17c-15.69,-9.26 -37.53,-7.79 -52.06,4.12c-13.91,11.39 -28.32,21.65 -46.23,25.76c-0.45,0.1 -0.79,0.7 -1.17,1.07l0.38,1.19c7.54,-1.13 15.45,-1.18 22.5,-3.68c8.82,-3.13 17.19,-7.84 25.28,-12.65c9.83,-5.86 19.96,-10.03 31.57,-9.25c12.04,0.81 21.98,5.15 27.08,17.1c1.36,3.17 1.97,6.09 -0.09,9.37c-1.19,1.9 -1.39,4.42 -2.05,6.72c4.47,-3.08 8.21,-6.54 12.62,-8.52c17.58,-7.92 36.45,2.75 37.19,20.67c0.57,14.05 -9.44,27.73 -23.11,31.43c-11.01,2.97 -21,-0.04 -29.92,-4.94l8.69,-16.11l-1.57,-1.28c-6.81,9.23 -14.83,15.76 -27.79,12.98c8.55,-8.78 9.94,-18.78 7.38,-29.91c-3.47,14.78 -9.36,27.05 -26.51,28.27l3.76,-15.34l-1.36,-0.77c-7.2,12.36 -17.52,19.61 -31.93,19.62c-14.25,0.01 -25.07,-6.8 -33.54,-18.04c1.92,10.05 7.85,16.96 16.3,21.96c-11.28,12.01 -26.02,11.96 -36.84,0.13c-17.37,-18.99 -9.74,-46.4 14.86,-53.36c1.76,-0.5 3.6,-0.73 5.32,-1.31c7.56,-2.52 15.22,-4.78 22.56,-7.84c3.41,-1.42 6.18,-4.41 9.24,-6.69l-0.79,-1.2c-4.54,1.77 -9.08,3.54 -14.37,5.59m-107.97,40.49c5.09,13.81 10.5,27.29 29.18,26.14l10.46,30.53l7.52,-3.14l-13.48,-29.47c5.99,-4.33 9.39,-9.77 9.07,-16.77c-0.83,-18.44 -9.5,-32.76 -24.44,-43.05c-8.78,-6.05 -16.73,-2.54 -19.33,7.78c-2.3,9.1 -1.44,18.18 1.01,27.98m125.58,59.53c-5.92,-0.39 -11.94,-1.64 -17.74,-0.99c-9.26,1.05 -14.54,6.06 -15.28,12.6c-0.78,6.88 3.5,12.97 11.76,16.72a29.13,29.13 0 0 0 2.3,0.94c10.22,3.62 20.62,3.18 31.05,1.32c1.57,-0.28 2.99,-1.39 4.47,-2.12l-0.32,-2c-4.85,0 -9.77,0.47 -14.55,-0.13a81.92,81.92 0 0 1 -16.2,-3.74c-1.55,-0.52 -3.12,-3.7 -2.98,-5.53c0.1,-1.41 2.78,-3.59 4.46,-3.75c6.41,-0.58 12.96,-1.19 19.31,-0.46c9.39,1.07 18.64,3.38 27.98,4.96c7.83,1.32 15.71,2.12 24.8,-0.04c-7.62,-1.92 -14.09,-3.23 -20.36,-5.19c-12.68,-3.96 -25.26,-8.28 -38.7,-12.59m-156.09,40.35l-0.66,4.03c1.49,-0.14 3.03,-0.09 4.46,-0.46c7,-1.82 13.97,-3.77 20.96,-5.62c1.9,-0.51 4.36,-0.3 5.65,-1.44c1.78,-1.58 3.85,-4.23 3.66,-6.23c-0.18,-1.99 -2.7,-4.71 -4.73,-5.33c-2.62,-0.8 -5.92,-0.31 -8.67,0.51c-8.2,2.43 -14.44,7.93 -20.67,14.54m169.09,80.11l-1.12,1.78l12.35,10.92c8.68,-7.57 8.69,-7.7 -0.08,-15.39c-0.13,-0.11 -0.27,-0.21 -0.37,-0.34c-3.18,-3.89 -6.02,-3.33 -8.66,0.63c-0.46,0.68 -1.11,1.24 -2.12,2.4m-7.92,16.39c1.5,1.76 2.78,3.82 4.59,5.17c1.16,0.86 3.41,1.36 4.65,0.81c5.76,-2.53 6.37,-5.77 2.35,-10.46c-0.96,-1.13 -2.06,-2.18 -2.87,-3.41c-2.42,-3.71 -5.01,-4.17 -8.48,-1.15c-3.16,2.75 -4.4,5.32 -0.24,9.04m-97.01,24.3l3.92,1.18c0.47,-4.61 0.68,-8.85 1.39,-13c0.62,-3.67 -0.28,-5.71 -4.48,-5.75c-1.49,2.25 -2.95,4.64 -4.61,6.89c-1.65,2.24 -3.49,4.33 -5.58,6.87l4.83,2.03l1.31,-3.96c1.46,0.77 1.83,1.7 2.05,2.66c0.22,0.9 0.28,1.84 1.17,3.08m-80.56,-166.89l4.06,6.42c3,-4.79 5.18,-8.48 7.57,-12.03c3.77,-5.59 3.83,-5.55 -0.05,-12.25c-3.86,5.96 -7.5,11.6 -11.58,17.86m121.19,131.89l-2.35,0.58l4,9.82c2.47,-3.09 5.9,-2.89 8.62,-0.86l1.94,-9.46l-7.99,-5.11c-0.94,1.34 -2.19,3.13 -4.22,5.03m-31.69,34.82c-1.73,1.42 -2.2,2.63 0.56,3.26c2.71,0.61 5.41,1.19 8.46,1.87l1.1,-5.55c-0.39,-0.14 -0.77,-0.27 -1.15,-0.41l-3.08,2.65l-1.21,-0.62l3.87,-13.65l-5.72,-1.24c-0.91,4.67 -1.71,8.83 -2.83,13.69m68.55,-45.48l-1.23,-1.76l-5.99,5.05c0.97,2.5 1.99,5.11 2.72,7l7.49,-0.79l1.75,-7.59c-0.98,-0.29 -2.64,-0.77 -4.74,-1.91m-66.46,16.83l6.86,-0.92l1.76,-7.18l-6.47,-3.78l-5.47,4.8c0.76,2.13 1.64,4.59 3.32,7.08m-76.12,-143.07c-2.28,3.65 -4.81,7.19 -6.73,11.02c-0.88,1.74 -0.56,4.08 -0.79,6.15l1.46,0.14c2.84,-4.67 5.72,-9.31 8.49,-14.01c1.41,-2.38 1.19,-2.67 -2.43,-3.3m270.59,112.36l3.64,-3.18c-1.12,-1.04 -2.26,-2.94 -3.37,-2.92c-1.81,0.03 -3.6,1.32 -5.4,2.07c1.47,1.35 2.93,2.7 5.13,4.03z" fill="none" id="svg_1"/>
  <path d="m350.98,174.97l15.83,-12.13c2.45,3.68 1.22,6.61 -0.85,9.35c-0.78,1.03 -1.9,1.87 -2.98,2.63c-11.05,7.81 -19.44,17.45 -22.74,31.05c-1.08,4.43 -3.43,8.54 -5.31,13.05c2.28,0.33 4.42,0.24 6.16,1.02c1.41,0.64 2.36,2.32 3.51,3.54c-1.34,0.91 -2.9,2.8 -3.98,2.56c-7.21,-1.61 -10.97,1.78 -14.59,7.63c-2.14,3.45 -6.46,6.51 -10.42,7.7c-8.75,2.63 -15.52,-5.33 -13.36,-15.72c-3,0 -5.89,-0.04 -8.78,0.01c-47.53,0.7 -94.87,3.95 -141.85,11.41c-36.73,5.82 -72.88,13.9 -107.3,28.52c-2.14,0.9 -6.3,1.17 -7.17,0c-1.48,-2.01 -1.44,-5.4 -1.36,-8.19c0.05,-1.66 1.4,-3.28 2.32,-5.26c-1.02,0 -1.9,-0.09 -2.75,0.02c-11.7,1.42 -19.33,-3.01 -23.3,-14.11c-5.29,-14.79 -4.02,-29.88 -1.13,-44.89c3.3,-17.15 8.91,-33.44 19.19,-47.8c5.13,-7.16 11.36,-13.1 19.73,-16.33c10.94,-4.22 18.7,-0.41 21.95,10.82c3.41,11.8 2.52,23.81 0.71,35.69c-1.18,7.7 -3.37,15.24 -5.1,22.86c-0.74,3.23 -2.77,5.29 -6.04,4.5c-3.69,-0.9 -7.23,-2.52 -10.65,-4.21c-0.36,-0.17 0.3,-2.99 0.88,-4.42c5.74,-14.12 9.96,-28.64 10.27,-43.96c0.07,-3.26 -2.1,-6.57 -3.25,-9.86c-3.3,1.48 -7.57,2.12 -9.7,4.61c-4.05,4.72 -7.55,10.18 -10.06,15.87c-8.13,18.4 -13.57,37.58 -13.85,57.87a44,44 0 0 0 1.74,12.78c2.37,8.1 8.93,11.35 16.35,7.27c6.3,-3.47 12.78,-7.76 17.16,-13.29c7.46,-9.44 13.4,-20.09 19.85,-30.32c3.01,-4.77 5.35,-10 8.64,-14.55c4.68,-6.47 8.39,-7.08 15.51,-3.65c1.48,0.71 2.96,1.41 4.85,2.31c1.43,-2.23 2.83,-4.24 4.05,-6.36c2.55,-4.43 5.97,-3.3 9.45,-1.55c3.47,1.75 3.76,4.19 2.5,7.87c-3.12,9.09 -5.75,18.35 -8.37,27.59c-0.45,1.58 0.1,3.44 0.25,6.44c2.16,-1.8 3.54,-2.65 4.51,-3.84c1.58,-1.92 3.05,-3.97 4.28,-6.13c8.72,-15.33 15.56,-31.45 20.56,-49.75l-12.15,5.64c-6.86,-5.21 -6.53,-9.45 1.59,-12.77c3.22,-1.32 6.58,-2.74 9.98,-3.07c4.72,-0.46 7.62,-2.49 9.37,-6.78c0.75,-1.82 2.02,-3.44 3.17,-5.07c3.51,-4.99 10.89,-4.53 13.11,1.2c0.84,2.17 -0.52,5.19 -0.82,7.4c3.47,1.77 7.81,3.31 11.19,6.03c1.54,1.24 1.17,4.84 1.57,6.91c-6.09,-0.76 -11.57,-1.73 -17.07,-1.97c-1.61,-0.07 -4.11,1.54 -4.83,3.05c-7.27,15.02 -13.59,30.43 -15.86,47.11c-0.68,5.05 -0.66,10.33 -0.05,15.4c0.8,6.6 1.4,6.71 7.97,6.07c1.13,-0.11 2.25,-0.32 4.13,-0.59c-6.38,-6.18 -6.03,-13.42 -4.73,-20.7c2.25,-12.65 6.95,-24.27 15.1,-34.36c3.15,-3.89 7.02,-5.95 12.21,-5.19c7.21,1.05 11.66,6.48 10.6,13.7c-0.51,3.42 -1.49,6.84 -2.79,10.06c-3.62,8.98 -8.37,16.68 -20.87,14.04c-0.32,4.74 -1.02,9.01 -0.79,13.24c0.22,3.95 2.57,4.91 5.82,2.64c2.3,-1.6 4.42,-3.58 6.25,-5.71c8.29,-9.69 15.09,-20.21 18.5,-32.75c1.66,-6.08 4.16,-11.92 6.24,-17.89c1.31,-3.76 3.68,-4.72 7.4,-3.34c3.6,1.34 4.46,3.62 3.21,7.05c-1.18,3.21 -2.3,6.45 -2.64,10.27c0.93,-1.45 2.09,-2.8 2.72,-4.37c1.61,-3.98 4.68,-4.54 8.19,-3.52c3.58,1.03 7.49,1.68 7.33,7.13a60.95,60.95 0 0 0 1.91,16.93c1.66,-5.83 3.15,-11.73 5.05,-17.49c1.73,-5.25 8.92,-6.48 12.28,-2.06c0.82,1.07 0.51,3.39 0.08,4.96c-1.93,7.04 -4.24,13.98 -6.07,21.05c-0.58,2.23 -0.09,4.75 -0.09,7.13l1.26,0.6c1.46,-1.61 3.37,-2.99 4.31,-4.86a667.33,667.33 0 0 0 11.74,-24.7c1.43,-3.16 2.15,-6.64 3.38,-9.91c2.07,-5.5 6.09,-6.82 10.8,-3.2c1.26,0.97 2.2,3.7 1.79,5.22c-1.07,3.93 -2.97,7.64 -4.07,11.93c0.69,-0.65 1.46,-1.23 2.05,-1.95c3.9,-4.75 7.59,-9.67 11.7,-14.23c3.58,-3.99 7.89,-2.64 11.9,-0.52c4.16,2.19 2.99,5.57 1.99,9.11a358.1,358.1 0 0 0 -5.01,19.84c-0.55,2.49 -0.37,5.15 -0.59,9c6.39,-3.91 9,-9.09 11.34,-14.46c3.58,-8.21 6.61,-16.71 10.83,-24.58c6.5,-12.13 11.79,-13.81 24.53,-9.26c0.82,-1.18 1.43,-3.08 2.56,-3.47c2.48,-0.85 5.48,-1.77 7.78,-1.06c1.55,0.48 3.35,3.8 3.16,5.66c-0.75,7.43 -2.23,14.8 -3.37,22.42c-0.01,0.49 -0.08,0.76 -0.15,1.02l0.5,-0.63m-237.13,51.96l20.83,-2.6l-2.41,-17.38c-2.74,3.98 -5.35,8.01 -8.2,11.85c-2.74,3.69 -6.05,6.64 -11.79,6.31c-10.5,-1.95 -8.22,-10.46 -8.24,-18.21l-15.46,23.76c8.07,-1.26 16.24,-2.54 25.27,-3.73m117.11,-16.83c-0.47,-4.82 -0.95,-9.65 -1.46,-14.9c-9.7,1.51 -12.39,-4.4 -12.14,-14.03c-8.59,12.38 -14.09,24.36 -15.81,37.82c0.58,0.31 0.72,0.47 0.87,0.46c34.29,-0.5 68.59,-0.99 102.88,-1.59c1.26,-0.02 2.83,-0.85 3.7,-1.8c7.09,-7.73 14.36,-15.32 20.89,-23.5c3.15,-3.94 4.81,-9.07 7.15,-13.67l-1.65,-0.91c-3.53,4.72 -6.9,9.59 -10.63,14.15c-6.57,8.02 -7.82,8.27 -17.48,4.92c-2,2.37 -3.92,4.87 -6.08,7.14c-4.23,4.43 -9.33,3.53 -14.41,1.97c-4.97,-1.53 -5.18,-5.64 -4.89,-9.75c0.45,-6.3 1.16,-12.58 1.76,-18.87l-1.51,-0.68c-5.44,11.13 -11.18,22.12 -16.16,33.44c-2.05,4.66 -4.74,5.3 -8.98,4.37c-4.54,-0.99 -5.42,-3.71 -4.16,-7.75c0.24,-0.78 0.04,-1.7 0.04,-3.08c-10.21,11.67 -13.57,12.69 -21.93,6.26m-128.14,-25.23c-1.28,0.21 -3.16,-0.06 -3.76,0.69c-6.7,8.44 -9.94,18.36 -12.02,28.81c1.01,-0.26 1.76,-0.67 2.15,-1.29c4.67,-7.43 9.4,-14.83 13.82,-22.4c0.77,-1.32 0.18,-3.44 -0.19,-5.81m216.68,-4.84l-1.9,6.51c8.27,-5.01 19.07,-23.97 17.31,-30.27c-7.7,6.22 -11.32,14.69 -15.41,23.76m-243.93,46.05l-2.21,-2.86l-10.85,13.81l24.17,-6.03c-3.68,-1.54 -7.13,-2.98 -11.11,-4.92m103.18,-43.05l1.58,-8.57l-1.64,-0.44l-9.24,18.55c5.84,-0.78 7.35,-4.86 9.3,-9.54m9.83,36.92l1.5,-11.61l-10.8,12.75c3.6,-0.34 6.06,-0.58 9.3,-1.14z" fill="#1B1B1B" id="svg_2"/>
  <path d="m223.46,25.61c4.91,-1.91 9.45,-3.68 13.99,-5.45l0.79,1.2c-3.06,2.28 -5.83,5.27 -9.24,6.69c-7.34,3.05 -15,5.32 -22.56,7.84c-1.72,0.58 -3.56,0.81 -5.32,1.31c-24.6,6.96 -32.23,34.37 -14.87,53.36c10.83,11.83 25.57,11.88 36.85,-0.13c-8.45,-5 -14.38,-11.91 -16.3,-21.96c8.47,11.24 19.29,18.05 33.54,18.04c14.41,-0.01 24.73,-7.26 31.93,-19.62l1.36,0.77l-3.76,15.34c17.15,-1.23 23.04,-13.49 26.5,-28.27c2.57,11.13 1.17,21.13 -7.38,29.91c12.97,2.78 20.98,-3.75 27.8,-12.98l1.57,1.28l-8.69,16.11c8.92,4.9 18.91,7.91 29.92,4.94c13.67,-3.7 23.68,-17.38 23.11,-31.43c-0.73,-17.92 -19.61,-28.59 -37.19,-20.67c-4.41,1.98 -8.15,5.44 -12.62,8.52c0.66,-2.3 0.86,-4.82 2.05,-6.72c2.06,-3.28 1.45,-6.2 0.09,-9.37c-5.1,-11.95 -15.04,-16.29 -27.08,-17.1c-11.61,-0.78 -21.74,3.39 -31.57,9.24c-8.09,4.82 -16.46,9.53 -25.28,12.66c-7.05,2.5 -14.96,2.55 -22.5,3.68l-0.39,-1.19c0.39,-0.37 0.73,-0.97 1.17,-1.07c17.92,-4.11 32.33,-14.37 46.24,-25.76c14.53,-11.91 36.37,-13.38 52.06,-4.12c9.33,5.5 14.86,13.6 16.59,24.17c4.55,-1.31 8.9,-3.22 13.41,-3.76c19.29,-2.28 34.97,13.67 33.85,34.07c-1.4,25.57 -24.44,42.83 -50.1,37.54c-0.97,-0.2 -1.94,-0.41 -3.47,-0.74l1.55,43.03c-20.31,-15.69 -42.8,-22.89 -67.27,-24.69c19.45,-3.58 38.47,-2.28 57.81,5.11c-0.38,-6.6 -0.36,-12.69 -1.19,-18.66c-0.7,-5.09 -4.74,-7.84 -9.19,-9.72c-9.78,-4.15 -20.13,-4.43 -30.48,-3.74c-16.89,1.13 -33.83,3.54 -48.52,12.2c-14.11,8.33 -26.44,4.79 -37.99,-3.28c-14.4,-10.07 -20.08,-24.87 -16.35,-42.08c3.85,-17.73 16.86,-26.36 33.71,-30c7.64,-1.65 15.36,-2.92 23.42,-4.5z" fill="#1D1D1D" id="svg_3"/>
  <path d="m115.04,65.84c-2.39,-9.4 -3.25,-18.48 -0.95,-27.58c2.6,-10.32 10.56,-13.83 19.33,-7.79c14.94,10.3 23.61,24.62 24.44,43.06c0.32,7 -3.08,12.44 -9.07,16.77l13.48,29.47l-7.52,3.14l-10.46,-30.53c-18.68,1.15 -24.09,-12.33 -29.25,-26.54z" fill="#1A1A1A" id="svg_4"/>
  <path d="m284.18,269.08l17.15,-23.47l4.62,2.56c-12.95,29.99 -52.09,67.7 -106.38,72.8c-61.4,5.76 -107.44,-29.37 -125.83,-60.3c4,-2.87 6.44,-1.81 9.54,2.08c5.8,7.25 12.52,13.77 19.32,21.02c34.18,27.97 72.35,37.13 114.66,27.12c26.83,-6.36 49.33,-20.33 66.92,-41.81z" fill="#1F1F1F" id="svg_5"/>
  <path d="m97.88,75.01c2.12,5.44 4.15,10.91 6.41,16.3c0.66,1.58 1.95,2.9 3.61,4.04c1.65,-4.95 -1.57,-8.63 -2.88,-12.68c-1.43,-4.39 -3.34,-8.61 -4.83,-13.44c-0.24,-1.1 -0.68,-1.67 -1.12,-2.23c-2.74,-6.75 -5.48,-13.5 -7.88,-20.61c1.48,-0.03 2.63,0.29 3.78,0.61c4.33,10.09 8.66,20.18 12.79,30.8c0.24,1.08 0.66,1.64 1.09,2.21c2.59,5.93 5.28,11.83 7.75,17.82c1.74,4.21 0.91,8.3 -1.81,11.77c-3.45,4.4 -3.33,8.58 -0.77,13.39c3.21,6.01 6.03,12.24 8.69,18.51c0.8,1.9 0.5,4.27 0.74,6.88c-6.67,-1.8 -8.88,-5.86 -10.25,-10.88c-1.36,-4.97 -3.31,-9.77 -4.75,-14.72c-1.12,-3.81 -3.56,-6.08 -7.31,-6.61c-6.79,-0.96 -10.24,-4.96 -12.48,-11.24c-6,-16.74 -12.48,-33.31 -18.71,-49.98c-0.66,-1.75 -0.93,-3.66 -1.38,-5.49l1.63,-0.96c1.06,1.47 2.45,2.8 3.11,4.43c5.7,14.01 11.26,28.08 16.87,42.13c0.55,1.39 1,2.86 1.78,4.11c0.44,0.71 1.46,1.05 2.22,1.55c0.26,-0.98 0.52,-1.96 1.19,-3.34c1.16,-0.39 1.92,-0.39 2.67,-0.38l3.82,0.34c-0.12,-1.06 -0.03,-2.19 -0.39,-3.16c-2.14,-5.81 -4.39,-11.58 -6.33,-17.86c1.09,-0.77 1.91,-1.04 2.74,-1.31z" fill="#1D1D1D" id="svg_6" transform="matrix(1 0 0 1 0 0)"/>
  <path d="m241.1,125.84c13.03,4.24 25.6,8.56 38.29,12.52c6.26,1.96 12.73,3.27 20.35,5.19c-9.09,2.16 -16.97,1.36 -24.8,0.04c-9.34,-1.58 -18.59,-3.89 -27.98,-4.96c-6.35,-0.73 -12.9,-0.12 -19.3,0.46c-1.69,0.16 -4.37,2.34 -4.47,3.75c-0.14,1.83 1.44,5.01 2.98,5.53a81.92,81.92 0 0 0 16.21,3.74c4.78,0.6 9.69,0.13 14.54,0.13l0.32,2c-1.48,0.73 -2.9,1.84 -4.47,2.12c-10.43,1.86 -20.83,2.3 -31.04,-1.32a29.13,29.13 0 0 1 -2.31,-0.94c-8.25,-3.75 -12.53,-9.84 -11.76,-16.72c0.74,-6.54 6.02,-11.55 15.28,-12.6c5.8,-0.65 11.82,0.6 18.16,1.06z" fill="#1F1F1F" id="svg_7"/>
  <path d="m105.22,281.67l-22.1,-23.26c4.11,-2.33 4.13,-2.35 6.77,1.07c17.4,22.59 39.91,37.53 67.55,44.36c53.68,13.26 109.41,-11.72 135.59,-60.47c0.69,-1.29 1.42,-2.57 2.13,-3.86l1.37,0.06c0,1.86 0.73,4.2 -0.12,5.52c-5.03,7.82 -10.44,15.4 -16.15,23.53c-34.97,37.02 -76.79,49.73 -125.75,38.39c-18.47,-4.29 -34.5,-13.7 -49.3,-25.34l0.01,0z" fill="#262626" id="svg_8"/>
  <path d="m84.82,165.84c6,-6.33 12.24,-11.83 20.44,-14.26c2.75,-0.82 6.05,-1.3 8.67,-0.51c2.03,0.62 4.55,3.35 4.73,5.33c0.19,2 -1.88,4.65 -3.66,6.23c-1.3,1.14 -3.75,0.93 -5.66,1.44c-6.98,1.86 -13.95,3.8 -20.95,5.62c-1.43,0.37 -2.97,0.32 -4.46,0.46c0.22,-1.34 0.44,-2.69 0.89,-4.31z" fill="#1F1F1F" id="svg_10"/>
  <path d="m205.9,280c-0.15,2.92 -0.3,5.83 -0.18,9.33c0.26,1.15 0.26,1.71 0.26,2.27l-5.58,1.13c0.4,-0.4 0.81,-0.8 1.22,-1.2l-6.59,-14.02l-2.78,5.24l-1.95,-3.41l-0.92,0.14l0.87,13.84l-5.79,0.36l0,-14.54l-2.89,4c-0.34,-2.11 -0.52,-3.21 -0.62,-4.83c0.09,-0.52 0.08,-0.87 0.08,-0.87c3.94,-0.26 7.89,-0.53 11.84,-0.76c2.69,-0.16 5.4,-0.26 7.88,0.17c-0.4,5.5 3.47,2.08 5.15,3.15m-2.86,1.68l-0.44,0.72c0.25,0.09 0.5,0.18 0.75,0.27c0.04,-0.36 0.08,-0.71 -0.31,-0.99z" fill="#242424" id="svg_11"/>
  <path d="m253.91,245.96c0.78,-0.89 1.43,-1.45 1.89,-2.13c2.64,-3.96 5.47,-4.52 8.66,-0.63c0.1,0.13 0.24,0.23 0.37,0.34c8.77,7.69 8.76,7.82 0.08,15.39l-12.35,-10.92c0.02,-0.02 0.57,-0.9 1.34,-2.05l0.01,0z" fill="#282828" id="svg_12"/>
  <path d="m132.03,261.2l-12.14,13.1c-0.89,-1.3 -1.86,-2.55 -2.62,-3.91c-0.26,-0.47 0.23,-1.32 0.01,-1.85c-0.74,-1.87 -2.85,-4.42 -2.27,-5.37c2.15,-3.45 4.9,-6.69 8.03,-9.27c0.87,-0.71 4.15,0.73 5.77,1.93c1.43,1.05 2.1,3.13 3.16,5.11c0.07,0.35 0.06,0.26 0.06,0.26m-7.7,1.69l3.54,-4.84l-1.47,-1.24c-1.71,1.78 -3.53,3.48 -5.09,5.39c-0.44,0.54 -0.14,1.68 -0.18,2.55c0.89,-0.42 1.78,-0.84 3.2,-1.86zm-33.2,-175.89l-16.19,-40.11l2.36,-1.22c1.01,1.54 2.3,2.96 2.98,4.64c4.87,11.96 9.62,23.98 14.08,36.34c-1.3,0.36 -2.26,0.36 -3.23,0.36l0,-0.01z" fill="#242424" id="svg_13"/>
  <path d="m245.5,262.36c-3.9,-3.46 -2.66,-6.03 0.5,-8.78c3.47,-3.02 6.06,-2.56 8.48,1.15c0.81,1.24 1.9,2.28 2.87,3.41c4.02,4.69 3.41,7.94 -2.36,10.47c-1.23,0.54 -3.49,0.04 -4.65,-0.82c-1.81,-1.35 -3.08,-3.41 -4.84,-5.43m9.22,3.09c0.44,-0.54 1.34,-1.45 1.24,-1.58c-2.4,-3.03 -4.91,-5.98 -7.41,-8.95l-1.8,1.45c2.42,2.91 4.85,5.82 7.97,9.08z" fill="#222" id="svg_14"/>
  <path d="m231.25,268.26c-0.68,-4.87 3.14,-6.13 6.37,-7.57c3.67,-1.64 4.23,2.09 5.78,3.94c0.85,1.01 1.47,2.21 2.18,3.33c3.33,5.17 2.74,7.05 -2.86,9.82c-2.47,1.22 -4.31,1.12 -5.81,-1.51c-1.56,-2.73 -3.39,-5.31 -5.41,-7.98c-0.32,-0.03 -0.25,-0.03 -0.25,-0.03m6.68,1.17l4.22,5.82l1.88,-1.29l-6.69,-10.45l-1.76,0.95c0.65,1.43 1.3,2.87 2.35,4.97z" fill="#242424" id="svg_15"/>
  <path d="m132.33,261.57c-0.3,-0.37 -0.29,-0.28 -0.33,-0.25c3.37,-1.49 5.38,0.36 6.69,3.4c-2.41,3.37 -4.54,6.23 -6.37,9.27c-0.35,0.57 0.25,2.08 0.87,2.73c0.32,0.33 2.18,-0.04 2.42,-0.53c1.71,-3.61 3.18,-7.34 4.72,-11.02l4.85,1.3c-2.57,4.06 -4.99,7.31 -6.79,10.87c-2.06,4.04 -4.62,2.87 -7.33,1.24c-2.61,-1.56 -5.19,-3.08 -2.89,-6.97c1.79,-3.05 2.99,-6.44 4.16,-10.04z" fill="#282828" id="svg_16"/>
  <path d="m231.17,268.23a425.93,425.93 0 0 0 -2.8,5.21l2.41,4.9l-3.08,1.33l3.61,4l-5.88,2.63l-6.98,-15.4c2.47,-1.16 5.5,-2.78 8.71,-3.92c0.81,-0.29 2.18,0.96 3.69,1.39c0.4,-0.11 0.33,-0.11 0.32,-0.14z" fill="#2B2B2B" id="svg_17"/>
  <path d="m148.37,286.76c-0.51,-1.07 -0.58,-2.02 -0.79,-2.92c-0.22,-0.96 -0.59,-1.89 -2.05,-2.66l-1.31,3.96l-4.83,-2.02c2.08,-2.55 3.93,-4.64 5.58,-6.88c1.66,-2.25 3.12,-4.64 4.61,-6.89c4.2,0.04 5.1,2.09 4.48,5.75c-0.71,4.15 -0.92,8.39 -1.39,13c-1.22,-0.37 -2.57,-0.77 -4.3,-1.34z" fill="#292929" id="svg_18"/>
  <path d="m68.41,119.71c3.86,-5.94 7.5,-11.58 11.36,-17.54c3.88,6.7 3.82,6.66 0.05,12.25c-2.39,3.55 -4.57,7.24 -7.57,12.03c-1.57,-2.48 -2.81,-4.45 -3.84,-6.74z" fill="#222" id="svg_19"/>
  <path d="m189.77,251.87c1.64,-1.85 2.89,-3.64 3.82,-4.98l8,5.11l-1.95,9.46c-2.72,-2.03 -6.14,-2.24 -8.62,0.86l-3.99,-9.82c0.07,-0.01 1.21,-0.3 2.74,-0.63zm-91.9,-177.23c-0.82,0.64 -1.64,0.91 -2.76,1.31c-4.75,-10.51 -9.85,-20.91 -11.62,-32.53c6.82,9.38 9.69,20.53 14.38,31.22z" fill="#262626" id="svg_20"/>
  <path d="m157.84,286.39c0.97,-4.51 1.77,-8.67 2.68,-13.34c1.82,0.39 3.96,0.86 5.72,1.24l-3.87,13.65l1.2,0.62l3.09,-2.65l1.14,0.4l-1.09,5.56c-3.05,-0.68 -5.76,-1.26 -8.46,-1.87c-2.77,-0.63 -2.29,-1.84 -0.41,-3.61z" fill="#2B2B2B" id="svg_21"/>
  <path d="m226.46,241.59c1.88,0.81 3.54,1.29 4.52,1.58l-1.75,7.59l-7.49,0.79c-0.73,-1.89 -1.75,-4.5 -2.72,-7l5.99,-5.05c0.08,0.12 0.66,0.94 1.45,2.09z" fill="#262626" id="svg_22"/>
  <path d="m180.54,277.44c0.49,0 0.5,0.35 0.48,0.44c-1.02,1.09 -2.69,1.96 -2.91,3.11c-0.71,3.78 -0.9,7.66 -1.34,12.08l-5.46,-0.43l2.46,-16.96c1.64,0.46 3.97,1.11 6.77,1.76z" fill="#282828" id="svg_23"/>
  <path d="m159.38,258.08c-1.28,-2.48 -2.16,-4.94 -2.92,-7.07l5.47,-4.8l6.47,3.78l-1.76,7.18c-1.85,0.25 -4.36,0.59 -7.26,0.91zm-75.52,-143.37c3.42,0.94 3.64,1.23 2.23,3.61c-2.77,4.7 -5.65,9.34 -8.49,14.01l-1.46,-0.15c0.23,-2.06 -0.09,-4.4 0.79,-6.14c1.92,-3.83 4.45,-7.37 6.93,-11.33z" fill="#2B2B2B" id="svg_24"/>
  <path d="m353.89,227.39c-1.84,-1.34 -3.3,-2.69 -4.77,-4.04c1.8,-0.75 3.59,-2.04 5.4,-2.07c1.11,-0.02 2.25,1.88 3.37,2.92c-1.21,1.06 -2.42,2.12 -4,3.19z" fill="#262626" id="svg_26"/>
  <path d="m206.07,279.69c-1.85,-0.76 -5.72,2.66 -5.25,-2.52a286.95,286.95 0 0 1 6.24,-3.51l0.95,1.13a223.53,223.53 0 0 1 -1.94,4.9z" fill="#292929" id="svg_27"/>
  <path d="m91.16,87.36c0.94,-0.36 1.9,-0.36 3.23,-0.35a27.74,27.74 0 0 1 2.4,7.56c-1.04,0.41 -1.77,0.41 -2.5,0.42c-1.04,-2.43 -2.07,-4.85 -3.14,-7.63l0.01,0z" fill="#1D1D1D" id="svg_28"/>
  <path d="m94.97,46.68c-1.15,0 -2.3,-0.32 -3.81,-0.67c-0.5,-0.15 -0.64,-0.27 -0.46,-0.78c1.08,-1.01 1.83,-1.64 2.58,-2.27c0.56,1.13 1.13,2.27 1.7,3.72l-0.01,0zm-0.68,48.58c0.73,-0.28 1.46,-0.28 2.55,-0.31c0.71,0.46 1.06,0.93 1.3,1.73c-0.85,0.32 -1.61,0.31 -2.74,0.31c-0.62,-0.48 -0.86,-0.97 -1.11,-1.73z" fill="#242424" id="svg_29"/>
  <path d="m93.23,42.65c-0.7,0.94 -1.45,1.57 -2.56,2.3c-0.64,-0.73 -0.93,-1.56 -0.73,-2.69c1,-0.61 1.52,-0.91 2.04,-1.21c0.41,0.43 0.81,0.86 1.25,1.6z" fill="#1D1D1D" id="svg_30"/>
  <path d="m108.86,79.72c-0.44,-0.28 -0.86,-0.84 -1.07,-1.56c0.51,0.32 0.79,0.79 1.07,1.56zm-9.8,-12.43c0.45,0.27 0.9,0.84 1.11,1.57c-0.53,-0.32 -0.83,-0.8 -1.11,-1.57zm-7.26,-26.45c-0.34,0.51 -0.86,0.81 -1.69,1.13c0.29,-0.44 0.9,-0.89 1.69,-1.13z" fill="#242424" id="svg_31"/>
  <path d="m206.26,291.58c-0.28,-0.54 -0.28,-1.1 -0.28,-1.93c0.19,0.45 0.38,1.17 0.28,1.93z" fill="#292929" id="svg_32"/>
  <path d="m351,175c-0.19,0.18 -0.36,0.39 -0.52,0.6c0.07,-0.27 0.14,-0.53 0.39,-0.65c0.19,0.15 0.15,0.08 0.13,0.05z" fill="#FBFBFB" id="svg_40"/>
  <path d="m203.25,281.64c0.18,0.32 0.14,0.67 0.1,1.03l-0.75,-0.27c0.15,-0.24 0.29,-0.48 0.65,-0.76z" fill="#292929" id="svg_41"/>
 </g>
</svg>